<?xml version="1.0" standalone="no"?>
<!DOCTYPE svg PUBLIC "-//W3C//DTD SVG 20010904//EN"
 "http://www.w3.org/TR/2001/REC-SVG-20010904/DTD/svg10.dtd">
<svg version="1.0" xmlns="http://www.w3.org/2000/svg"
 width="419.000000pt" height="419.000000pt" viewBox="0 0 419.000000 419.000000"
 preserveAspectRatio="xMidYMid meet">
<metadata>
Created by potrace 1.11, written by Peter Selinger 2001-2013
</metadata>
<g transform="translate(0.000000,419.000000) scale(0.100000,-0.100000)"
fill="#000000" stroke="none">
<path d="M409 3148 c-1 -13 -1 -29 0 -37 2 -8 -2 -10 -10 -5 -8 5 -9 3 -3 -7
12 -19 11 -42 -1 -51 -6 -5 -5 -8 4 -8 10 0 11 -3 2 -14 -8 -10 -9 -16 -1 -21
5 -3 10 -11 10 -16 0 -6 -6 -7 -12 -3 -9 5 -9 2 1 -9 11 -14 11 -17 0 -17 -12
0 -12 -2 0 -9 9 -6 10 -10 2 -16 -9 -5 -9 -10 0 -21 9 -11 8 -14 -2 -14 -9 0
-10 -3 -4 -8 15 -11 17 -32 2 -32 -7 0 -8 -3 -2 -8 6 -4 10 -14 10 -22 0 -8
-4 -18 -10 -22 -6 -5 -5 -8 4 -8 10 0 11 -3 2 -14 -8 -10 -9 -16 -1 -21 5 -3
10 -11 10 -16 0 -6 -6 -7 -12 -3 -9 5 -9 2 1 -9 11 -14 11 -17 0 -17 -12 0
-12 -2 0 -9 9 -6 10 -10 2 -16 -9 -5 -9 -10 -1 -20 8 -10 7 -14 -2 -18 -10 -4
-10 -6 0 -6 6 -1 12 -8 12 -17 0 -9 -5 -12 -12 -8 -7 5 -8 3 -3 -6 12 -20 12
-60 0 -60 -5 0 -4 -4 4 -9 9 -6 10 -10 2 -16 -9 -5 -9 -10 0 -21 9 -11 8 -14
-2 -14 -12 0 -12 -2 0 -9 9 -6 10 -11 2 -15 -6 -4 -8 -12 -4 -19 11 -17 10
-57 -2 -57 -5 0 -4 -4 4 -9 9 -6 10 -10 2 -16 -9 -5 -9 -10 0 -21 9 -11 8 -14
-2 -14 -12 0 -12 -2 0 -9 9 -6 10 -11 2 -15 -6 -4 -8 -13 -4 -19 11 -17 10
-41 -2 -49 -6 -5 -5 -8 4 -8 10 0 11 -3 2 -14 -8 -10 -9 -16 -1 -21 5 -3 10
-11 10 -16 0 -6 -6 -7 -12 -3 -9 5 -9 2 1 -9 11 -14 11 -17 0 -17 -12 0 -12
-2 0 -9 9 -6 10 -10 2 -16 -9 -5 -9 -10 0 -21 9 -11 8 -14 -2 -14 -9 0 -10 -3
-4 -8 15 -11 17 -32 2 -32 -7 0 -8 -3 -2 -8 6 -4 10 -14 10 -22 0 -8 -4 -18
-10 -22 -6 -5 -5 -8 4 -8 10 0 11 -3 2 -14 -9 -10 -9 -16 -1 -21 8 -5 8 -10 0
-20 -8 -10 -8 -15 1 -20 8 -6 7 -10 -2 -16 -12 -7 -12 -9 0 -9 10 0 11 -3 2
-13 -6 -8 -8 -16 -6 -19 12 -12 13 -48 2 -48 -8 0 -8 -3 1 -9 17 -11 17 -21 0
-32 -7 -5 -8 -9 -2 -9 6 0 11 -7 11 -15 0 -8 -5 -15 -11 -15 -7 0 -7 -3 -1 -8
6 -4 10 -14 10 -22 0 -8 -4 -18 -10 -22 -6 -5 -5 -8 4 -8 10 0 11 -3 2 -13 -6
-8 -8 -17 -4 -21 11 -11 10 -46 -1 -46 -6 0 -5 -4 3 -9 9 -6 10 -10 2 -16 -9
-5 -9 -10 0 -21 9 -11 8 -14 -2 -14 -12 0 -12 -2 0 -9 9 -6 10 -11 2 -15 -6
-4 -8 -12 -4 -19 11 -17 10 -57 -2 -57 -5 0 -4 -4 4 -9 9 -6 10 -10 2 -16 -9
-5 -9 -10 0 -21 9 -11 8 -14 -2 -14 -12 0 -12 -2 0 -9 9 -6 10 -11 2 -15 -6
-4 -8 -12 -5 -18 4 -6 9 -29 11 -50 2 -29 0 -38 -9 -33 -7 4 -5 0 5 -8 20 -16
23 -32 5 -21 -10 6 -10 4 0 -8 16 -20 50 -29 59 -16 3 7 1 8 -5 4 -8 -5 -10
-2 -6 9 6 14 8 14 19 -1 8 -12 14 -14 19 -5 5 7 13 8 25 1 10 -5 21 -7 25 -3
3 3 24 7 46 8 28 1 40 -2 40 -12 0 -7 4 -13 10 -13 5 0 6 8 3 18 -6 15 -5 15
10 4 9 -8 25 -11 35 -8 11 4 32 2 48 -4 25 -9 27 -8 12 3 -16 12 -14 14 12 14
23 0 27 -3 19 -13 -7 -8 -6 -14 2 -20 8 -5 9 -3 4 6 -6 10 -4 12 8 7 10 -4 14
-2 11 7 -3 7 2 13 10 13 8 0 13 -4 10 -9 -3 -4 7 -8 23 -8 22 0 25 2 13 10 -9
6 -10 10 -3 10 6 0 15 -5 18 -10 5 -7 11 -8 19 -1 7 6 18 6 25 1 18 -11 43 -1
34 14 -4 7 -1 6 9 -2 8 -7 24 -9 33 -5 14 5 16 3 10 -7 -6 -10 -4 -11 6 -4 21
13 39 14 39 2 0 -6 8 -7 17 -4 9 4 20 2 23 -4 5 -8 9 -6 13 5 5 10 3 14 -5 9
-7 -4 -8 -3 -4 5 6 9 13 8 31 -3 17 -12 26 -13 31 -4 5 7 3 8 -6 3 -9 -5 -11
-4 -6 4 6 9 14 8 34 -5 15 -9 24 -13 20 -9 -4 4 -1 14 7 21 16 16 29 19 20 4
-4 -6 3 -9 16 -7 13 2 25 9 27 16 3 9 7 9 18 0 11 -9 14 -8 14 7 0 16 2 16 9
4 6 -8 7 -18 4 -24 -3 -5 -1 -6 6 -2 6 4 9 11 6 16 -3 4 2 13 10 20 13 11 14
10 9 -4 -5 -12 -2 -15 10 -10 10 4 15 13 11 22 -4 12 -3 12 9 3 16 -14 49 -4
39 13 -4 6 2 4 12 -4 12 -9 16 -10 11 -2 -6 9 1 11 26 8 18 -3 27 -3 20 0 -10
5 -10 9 -1 20 9 12 15 12 27 2 13 -11 15 -10 9 6 -7 17 -6 17 10 5 15 -12 16
-12 10 4 -7 19 9 24 16 5 4 -10 6 -10 6 0 1 6 7 12 15 12 8 0 18 5 22 12 5 7
3 8 -6 3 -8 -5 -11 -4 -6 3 4 6 13 9 21 5 9 -3 21 0 29 6 7 6 16 8 20 4 4 -4
4 1 0 11 -5 14 -4 17 4 12 8 -4 12 0 12 11 0 15 2 16 10 3 8 -13 10 -13 10 2
0 9 5 20 12 24 7 5 8 3 3 -6 -6 -9 -4 -11 4 -6 7 5 10 14 7 21 -3 10 4 12 27
10 18 -2 26 -1 20 2 -7 2 -13 9 -13 14 0 6 5 7 10 4 9 -6 14 7 11 27 0 4 7 4
16 1 12 -5 15 -2 10 10 -4 11 -1 17 9 17 8 0 12 5 9 10 -4 6 -1 9 7 8 7 -2 12
3 10 11 -2 8 3 11 12 8 9 -4 18 -2 21 3 4 6 1 10 -5 10 -7 0 -10 6 -7 13 2 6
11 11 21 9 11 -2 16 4 16 19 0 15 4 19 16 15 15 -6 15 -4 3 11 -12 15 -12 16
4 10 15 -6 16 -4 7 13 -11 21 -6 24 30 21 10 -1 8 2 -5 10 -19 12 -19 12 0 19
11 4 20 16 20 26 0 13 6 18 20 17 18 -1 18 0 4 10 -19 14 -14 37 9 38 11 0 12
2 5 6 -7 2 -13 9 -13 15 0 6 7 7 16 4 8 -3 13 -2 9 3 -3 5 -2 11 2 14 5 2 2 2
-5 1 -10 -3 -10 1 0 19 7 12 11 25 10 30 -1 4 2 7 8 7 5 0 10 5 10 11 0 5 -5
7 -10 4 -6 -3 -10 -1 -10 4 0 6 8 11 17 11 13 0 14 3 5 12 -8 8 -8 17 -1 30 6
11 11 32 11 48 1 21 5 27 17 23 14 -4 14 -3 1 6 -12 8 -13 14 -3 30 8 13 9 22
3 26 -6 4 -8 10 -5 15 3 5 6 30 7 55 0 26 5 45 12 45 8 0 8 2 0 8 -6 4 -14 45
-17 92 -6 87 -8 104 -23 175 -10 51 -9 45 -22 78 -7 16 -12 32 -12 37 0 19
-83 165 -124 219 -134 174 -348 288 -603 320 -37 5 -249 9 -470 10 l-403 2 -1
-23z m477 -384 c-3 -8 0 -16 7 -20 7 -4 9 -4 5 1 -4 4 -1 14 7 21 19 19 26 18
18 -3 -5 -15 -3 -14 10 2 l16 20 1 -20 1 -20 9 20 c5 11 9 15 9 9 1 -15 50
-24 58 -11 3 6 1 7 -5 3 -7 -4 -12 -2 -12 3 0 16 11 13 33 -6 13 -11 17 -12
12 -4 -6 11 -4 13 7 8 9 -3 21 0 28 6 10 9 11 9 6 0 -8 -14 6 -18 18 -6 10 11
37 12 30 2 -3 -5 6 -9 20 -9 14 0 26 5 26 10 0 6 5 10 11 10 8 0 8 -4 0 -14
-8 -10 -9 -16 -1 -21 5 -3 10 -1 10 4 0 17 30 13 36 -4 6 -14 8 -13 20 2 12
16 13 16 8 1 -4 -13 -1 -15 17 -11 17 5 20 3 14 -8 -7 -11 -6 -12 6 -3 11 9
17 9 26 -1 6 -7 9 -17 5 -21 -4 -5 1 -2 11 5 15 12 21 9 18 -11 0 -4 7 -4 16
-1 11 4 14 3 9 -5 -10 -16 6 -15 23 1 11 10 13 10 7 0 -4 -7 -3 -13 3 -13 6 0
8 -7 5 -15 -8 -20 1 -19 21 1 14 15 15 14 11 -8 -4 -27 19 -68 27 -46 5 16 18
6 21 -19 2 -11 10 -17 20 -15 15 3 16 0 5 -20 -12 -22 -11 -22 7 -8 10 8 16
10 12 6 -4 -5 0 -15 10 -23 16 -12 16 -13 -3 -7 -19 5 -19 5 1 -8 12 -7 19
-19 17 -25 -3 -7 0 -13 6 -13 6 0 7 -7 4 -17 -4 -11 -3 -14 5 -9 15 9 16 -6 1
-21 -8 -8 -7 -13 2 -18 8 -6 10 -4 4 5 -5 9 -4 11 4 6 6 -4 9 -16 6 -27 -4
-12 -2 -19 7 -19 10 0 9 -3 -2 -10 -10 -6 -11 -10 -2 -10 6 0 12 -6 12 -14 0
-8 -6 -17 -12 -19 -8 -3 -5 -6 5 -6 10 -1 15 -6 12 -12 -10 -16 -12 -69 -3
-63 4 3 8 -2 8 -11 0 -9 -4 -14 -9 -10 -6 3 -6 -6 -1 -25 5 -17 5 -32 0 -35
-5 -3 -7 -12 -4 -20 7 -17 -31 -172 -53 -217 -60 -123 -169 -222 -292 -268
-87 -33 -146 -42 -302 -45 l-146 -3 -2 75 c-1 49 3 81 11 91 8 10 9 13 1 9
-17 -10 -17 531 0 552 9 12 9 13 0 7 -10 -5 -13 10 -13 66 0 45 5 79 13 87 10
11 9 12 -1 6 -11 -5 -13 8 -10 69 2 46 -1 76 -7 76 -5 0 -3 5 5 10 8 5 11 10
5 10 -5 0 -3 5 5 10 12 8 12 10 -5 11 -11 0 -15 2 -10 5 6 2 10 21 9 42 0 36
1 38 28 38 19 0 27 -4 24 -12z m604 -130 c0 -8 -5 -12 -10 -9 -6 4 -8 11 -5
16 9 14 15 11 15 -7z m145 -1255 c-4 -5 -12 -9 -18 -8 -9 0 -8 2 1 6 6 2 9 10
6 15 -4 7 -2 8 5 4 6 -4 9 -12 6 -17z"/>
<path d="M855 2760 c3 -5 8 -10 11 -10 2 0 4 5 4 10 0 6 -5 10 -11 10 -5 0 -7
-4 -4 -10z"/>
<path d="M2389 3136 c-1 -17 -1 -49 -1 -71 0 -22 -5 -43 -11 -47 -8 -5 -8 -8
-1 -8 15 0 16 -72 1 -82 -9 -6 -9 -8 1 -8 6 0 12 -7 12 -16 0 -9 -5 -12 -12
-8 -10 6 -10 4 -2 -7 15 -20 15 -62 1 -71 -8 -5 -8 -8 -1 -8 15 0 15 -103 0
-112 -8 -5 -8 -8 0 -8 15 0 16 -72 1 -82 -9 -6 -9 -8 1 -8 6 0 12 -7 12 -16 0
-9 -5 -12 -12 -8 -10 6 -10 4 -2 -7 15 -20 15 -62 1 -71 -8 -5 -8 -8 -1 -8 15
0 15 -103 0 -112 -8 -5 -8 -8 0 -8 15 0 16 -72 1 -82 -9 -6 -9 -8 1 -8 6 0 12
-7 12 -16 0 -9 -5 -12 -12 -8 -10 6 -10 4 -2 -7 15 -20 15 -62 1 -71 -8 -5 -8
-8 -1 -8 15 0 15 -103 0 -112 -8 -5 -8 -8 0 -8 15 0 16 -72 1 -82 -9 -6 -9 -8
1 -8 6 0 12 -7 12 -16 0 -9 -5 -12 -12 -8 -10 6 -10 4 -2 -7 15 -20 15 -62 1
-71 -8 -5 -8 -8 -1 -8 15 0 15 -103 0 -112 -7 -5 -8 -8 0 -8 16 0 17 -80 1
-80 -8 0 -7 -4 3 -10 13 -9 13 -11 0 -20 -8 -5 -10 -10 -4 -10 15 0 15 -143 0
-152 -8 -5 -8 -8 0 -8 16 0 17 -80 1 -80 -8 0 -9 -3 -1 -8 6 -4 11 -34 10 -70
-1 -35 2 -66 7 -69 4 -2 5 -8 2 -13 -3 -5 0 -12 6 -16 7 -4 9 -3 6 3 -4 6 0
13 8 17 8 3 15 1 15 -5 0 -6 6 -7 13 -2 20 12 45 14 52 2 5 -7 11 -6 21 2 10
8 14 8 14 0 0 -6 5 -11 11 -11 5 0 7 5 3 12 -4 7 -3 8 5 4 6 -4 19 -2 27 5 8
7 14 8 13 3 -1 -5 -1 -16 0 -24 1 -13 3 -13 10 -1 8 12 12 12 25 2 9 -8 17
-11 17 -7 1 3 2 10 3 15 0 5 5 13 9 18 5 4 7 2 5 -6 -2 -7 3 -16 11 -19 8 -3
11 0 7 7 -4 6 -2 11 3 11 6 0 11 -6 12 -12 0 -7 4 -4 9 7 l9 20 0 -20 c1 -16
3 -17 10 -6 7 11 10 10 14 -5 4 -18 5 -18 6 0 1 20 1 20 16 0 11 -14 14 -15 9
-3 -6 20 11 34 22 18 5 -8 3 -9 -6 -4 -9 5 -11 4 -6 -3 8 -13 39 -1 52 20 4 6
3 8 -2 5 -6 -3 -16 -2 -24 4 -13 7 -13 9 1 9 13 0 16 9 13 45 -3 31 0 45 9 45
8 0 7 4 -3 10 -13 9 -13 11 0 20 10 6 11 10 3 10 -7 0 -13 9 -13 20 0 11 6 20
13 20 8 0 7 4 -3 10 -13 9 -13 11 0 20 10 6 11 10 3 10 -7 0 -13 9 -13 20 0
11 6 20 13 20 8 0 7 4 -3 10 -13 9 -13 11 0 20 10 6 11 10 3 10 -7 0 -13 9
-13 20 0 11 6 20 13 20 8 0 7 4 -3 10 -13 9 -13 11 0 20 8 5 10 10 4 10 -6 0
-10 31 -11 80 0 56 3 78 11 73 6 -4 5 1 -3 11 -13 15 -13 19 0 27 8 5 9 9 4 9
-6 0 -11 27 -12 65 0 58 2 63 17 55 10 -5 21 -6 25 -2 5 4 5 1 1 -5 -4 -7 -2
-13 3 -13 6 0 11 -7 11 -15 0 -8 -5 -15 -12 -15 -6 0 -9 -3 -6 -6 4 -3 17 0
30 7 12 6 20 8 16 4 -4 -4 -3 -17 3 -28 9 -15 8 -18 -3 -12 -11 7 -11 5 0 -6
11 -12 14 -12 22 1 5 8 10 10 10 5 0 -6 -6 -17 -12 -24 -10 -11 -10 -13 0 -7
7 4 12 1 12 -8 0 -9 5 -16 11 -16 5 0 7 5 3 12 -4 7 -3 8 5 4 9 -6 9 -11 0
-22 -11 -14 -2 -20 25 -15 5 1 6 -6 2 -15 -4 -11 -2 -15 7 -11 8 3 14 -1 14
-9 0 -7 -5 -10 -10 -7 -6 4 -7 1 -2 -6 4 -7 16 -11 26 -8 16 4 17 2 8 -15 -10
-18 -9 -20 5 -15 10 4 15 3 11 -3 -3 -6 -1 -10 5 -10 7 0 9 -7 6 -15 -4 -10 2
-19 17 -25 12 -5 18 -9 14 -9 -5 -1 -1 -8 7 -17 9 -8 13 -21 9 -27 -4 -7 2 -5
12 3 10 8 16 10 12 3 -8 -13 38 -64 49 -54 4 3 4 0 0 -7 -4 -7 -13 -9 -19 -5
-8 5 -8 2 0 -9 7 -8 10 -18 6 -22 -4 -4 0 -4 10 0 16 6 22 -4 18 -28 0 -4 11
-15 25 -24 14 -9 23 -23 20 -30 -3 -9 0 -11 11 -7 12 5 15 2 10 -10 -6 -17 7
-25 16 -9 2 4 2 2 1 -5 -2 -6 8 -19 22 -28 22 -14 23 -19 12 -33 -9 -11 -10
-14 0 -8 7 4 12 2 12 -4 0 -6 5 -8 13 -4 7 5 7 2 -2 -10 -8 -9 -10 -16 -5 -15
5 1 15 1 23 0 11 -1 11 -4 0 -18 -8 -9 -9 -14 -4 -11 16 10 36 -6 37 -28 2
-19 38 -32 38 -14 0 4 8 7 18 5 9 -1 16 -8 14 -15 -1 -6 2 -9 8 -5 6 3 8 11 5
16 -4 5 -1 9 4 9 6 0 11 -6 12 -12 0 -7 4 -4 9 7 5 11 9 14 9 8 1 -7 8 -13 17
-13 9 0 13 5 9 12 -4 7 0 5 8 -5 15 -18 15 -18 20 0 4 16 5 16 6 1 0 -10 6
-18 12 -18 5 0 8 4 5 8 -2 4 6 8 20 8 13 0 24 -3 24 -7 0 -4 14 -6 30 -5 17 0
30 4 30 8 0 14 31 8 36 -7 5 -12 10 -10 25 8 11 12 19 18 18 12 -3 -23 2 -36
11 -30 6 4 8 10 5 15 -3 5 -1 12 5 15 6 4 9 1 8 -5 -2 -7 5 -14 15 -15 14 -3
17 1 12 13 -5 14 -4 14 12 0 24 -21 48 -19 63 6 12 19 12 20 -3 7 -21 -16 -22
-8 -3 12 12 12 -12 49 -175 268 -103 140 -192 259 -196 264 -4 6 -46 62 -93
125 -47 63 -89 120 -93 125 -5 6 -42 55 -82 110 -62 83 -72 102 -60 111 8 6
12 14 8 17 -3 4 -2 7 4 7 6 0 10 8 9 18 -1 11 5 16 17 14 16 -3 23 14 18 42
-1 5 5 3 14 -4 8 -7 18 -10 22 -6 3 3 1 6 -5 6 -6 0 -9 7 -6 15 4 8 11 12 17
8 7 -4 8 0 3 12 -5 14 -4 16 7 6 12 -9 14 -7 13 11 -1 18 4 22 18 20 17 -3 18
-1 7 12 -11 13 -10 15 8 11 12 -2 19 0 16 4 -3 5 3 17 13 28 9 10 13 12 7 3
-9 -13 -8 -13 8 -1 12 9 15 21 11 35 -6 19 -5 20 11 6 17 -14 18 -13 12 4 -5
13 -3 17 7 13 10 -4 14 0 11 14 -2 11 0 17 6 14 5 -4 12 1 15 9 3 9 11 13 18
9 6 -4 5 1 -3 10 -12 15 -12 17 4 11 14 -6 16 -4 10 6 -6 10 -4 12 10 6 16 -6
16 -4 4 11 -12 15 -12 16 4 10 13 -5 17 -1 17 16 0 18 2 19 10 7 8 -12 10 -11
10 6 0 25 36 75 53 71 6 -1 12 5 12 13 0 8 6 14 12 13 6 -1 17 11 25 27 12 28
21 34 40 31 4 0 5 5 2 12 -2 7 5 22 17 33 13 10 19 13 14 5 -6 -10 -4 -12 4
-7 9 6 9 11 0 22 -10 12 -9 13 6 7 15 -5 17 -3 12 12 -6 14 -5 16 6 6 12 -9
14 -7 12 13 -2 17 1 23 13 21 26 -4 34 5 21 21 -10 12 -9 13 5 8 10 -4 18 0
22 10 3 9 11 13 18 9 6 -4 4 2 -4 13 -8 10 -11 16 -6 12 11 -9 39 19 31 31 -3
6 3 8 14 6 14 -2 18 1 14 15 -3 10 0 21 6 24 7 5 9 0 5 -11 -5 -17 -5 -17 9 0
9 11 13 25 10 33 -4 10 0 12 13 8 17 -6 17 -5 -1 9 -11 9 -15 17 -9 17 7 0 14
6 17 14 4 11 -38 13 -243 14 l-248 0 -82 -100 c-46 -55 -88 -105 -94 -111 -6
-7 -92 -109 -191 -227 -98 -118 -182 -217 -185 -220 -3 -3 -19 -21 -35 -40
l-31 -36 0 153 c-1 109 2 151 10 146 6 -4 5 1 -3 11 -13 15 -13 19 0 27 8 5 9
9 4 9 -7 0 -11 50 -12 140 0 92 3 137 10 133 6 -4 7 -1 1 8 -5 8 -10 28 -11
44 0 17 -2 37 -2 46 -1 15 -24 17 -211 17 l-210 -1 -1 -31z m821 -1676 c0 -5
-2 -10 -4 -10 -3 0 -8 5 -11 10 -3 6 -1 10 4 10 6 0 11 -4 11 -10z m-790 -226
c0 -8 -19 -13 -24 -6 -3 5 1 9 9 9 8 0 15 -2 15 -3z m977 -16 c-3 -8 -6 -5 -6
6 -1 11 2 17 5 13 3 -3 4 -12 1 -19z m253 8 c0 -2 -7 -7 -16 -10 -8 -3 -12 -2
-9 4 6 10 25 14 25 6z"/>
<path d="M3570 2710 c0 -5 5 -10 11 -10 5 0 7 5 4 10 -3 6 -8 10 -11 10 -2 0
-4 -4 -4 -10z"/>
<path d="M3547 2686 c-4 -10 -1 -13 8 -9 8 3 12 9 9 14 -7 12 -11 11 -17 -5z"/>
<path d="M3118 1553 c6 -2 9 -10 6 -15 -4 -7 -2 -8 5 -4 13 9 5 26 -12 25 -9
0 -8 -2 1 -6z"/>
<path d="M3270 1346 c0 -2 7 -7 16 -10 8 -3 12 -2 9 4 -6 10 -25 14 -25 6z"/>
<path d="M583 1193 c0 -9 4 -10 14 -2 7 6 13 12 13 14 0 1 -6 2 -13 2 -8 0
-14 -6 -14 -14z"/>
</g>
</svg>
